<?xml version="1.0" encoding="utf-8"?>
<!-- Generator: Adobe Illustrator 28.3.0, SVG Export Plug-In . SVG Version: 6.00 Build 0)  -->
<svg version="1.1" id="Bearbeitung" xmlns="http://www.w3.org/2000/svg" xmlns:xlink="http://www.w3.org/1999/xlink" x="0px"
	 y="0px" viewBox="0 0 1588.2 603" style="enable-background:new 0 0 1588.2 603;" xml:space="preserve">
<style type="text/css">
	.st0{display:none;}
	.st1{display:inline;}
	.st2{fill:#E5211C;}
	.st3{fill:#FFFFFF;}
	.st4{fill:#E41A17;}
	.st5{fill:#020203;}
</style>
<g id="Unterer_Teil_00000078008303660777820770000014207753505144099457_" class="st0">
	<g class="st1">
		<path class="st2" d="M234.3,246.2l0.6,0.3c36.7,13.6,74.9,23,113.6,28l-91.2,22.8l-23.1,5.8V246.2 M233.8,245.4
			c0,19.4,0,38.9,0,58.3l23.8-5.9l94.1-23.5c-48.7-5.9-88.4-17.9-116.5-28.3L233.8,245.4L233.8,245.4z"/>
	</g>
	<g class="st1">
		<path class="st2" d="M339.3,351.9v60.5l-4.6,1.3l-53.6-42.5L339.3,351.9 M339.9,351.1L280,371l54.6,43.3l5.3-1.5V351.1
			L339.9,351.1z"/>
	</g>
	<g class="st1">
		<path class="st2" d="M353.5,275c4.1,0.5,8.2,0.9,12.3,1.3l47.3,49.3L360.9,343l0-33l0-0.6h-0.6h-20.4h-0.6v0.6v40.2L279.6,370
			l-45.2-35.9v-29.4l23.8-5.9L353.5,275 M353.5,274.5L258,298.3l-24.2,6.1c0,10,0,20,0,30.1l45.7,36.2l60.4-20.1V310h20.4l0,33.8
			l53.8-17.9l-48.1-50.1C362,275.4,357.8,275,353.5,274.5L353.5,274.5z"/>
	</g>
	<g class="st1">
		<path class="st2" d="M464.1,378.7l16,16.7v56.1l-69.3,22.6l-49.9-39.6l0-26.4L464.1,378.7 M464.3,378.1l-103.9,29.5l0,27.1
			l50.4,40l70-22.8v-56.7L464.3,378.1L464.3,378.1z"/>
	</g>
	<g class="st1">
		<path class="st2" d="M339.3,414.2v3.2l-3-2.3L339.3,414.2 M339.9,413.5l-4.7,1.3l4.7,3.8V413.5L339.9,413.5z"/>
	</g>
	<g class="st1">
		<path class="st2" d="M501.9,418.1l19.2,20.1l-19.2,6.3V418.1 M501.3,416.7v28.5l20.8-6.8L501.3,416.7L501.3,416.7z"/>
	</g>
	<g class="st1">
		<path class="st2" d="M410.5,476l3.7,3h-12.8L410.5,476 M410.6,475.4l-12.8,4.2h18L410.6,475.4L410.6,475.4z"/>
	</g>
	<g class="st1">
		<path class="st2" d="M541.5,284.8l47.7,56.6l-87.4,24.8V310v-0.6l-0.6,0l-20.6,0l-0.6,0v0.6v62.5l-15.5,4.4l-22.1-23l0,0l-0.4-0.4
			l-25.8-27L541.5,284.8 M541.7,284.2l-126.4,42l26.4,27.6l0,0l22.7,23.7l16.3-4.6V310l20.6,0v57l88.9-25.3L541.7,284.2L541.7,284.2
			z"/>
	</g>
	<g class="st1">
		<path class="st2" d="M528.6,269.5l11.8,13.9L415,325l-46.3-48.4c13.9,1.2,27.8,1.8,42.4,1.8c12.5,0,24.2-0.4,35.5-0.8
			C475.9,276.5,503.5,273.8,528.6,269.5 M528.8,268.9c-21.4,3.7-48.7,7-82.3,8.1c-11.3,0.4-22.9,0.8-35.4,0.8
			c-13.3,0-27.7-0.5-43.8-1.9l47.6,49.8l126.4-42L528.8,268.9L528.8,268.9z"/>
	</g>
	<g class="st1">
		<path class="st2" d="M414.5,327l48.3,50.4l-101.9,29l0-61.5L414.5,327 M414.6,326.3l-54.3,18l0,62.7l103.5-29.4L414.6,326.3
			L414.6,326.3z"/>
	</g>
	<g class="st1">
		<path class="st2" d="M480.1,374.2V393L466,378.2L480.1,374.2 M480.7,373.4l-15.8,4.5l15.8,16.5V373.4L480.7,373.4z"/>
	</g>
	<g class="st1">
		<path class="st2" d="M279.2,371.9l53.5,42.4l-98.4,28v-55.5L279.2,371.9 M279.3,371.2l-45.6,15.1c0,18.9,0,37.8,0,56.7l100.2-28.5
			L279.3,371.2L279.3,371.2z"/>
	</g>
	<g class="st1">
		<path class="st2" d="M480.1,453.3V479h-63.2l-4.5-3.6L480.1,453.3 M480.7,452.5l-69.5,22.6l5.5,4.4h64V452.5L480.7,452.5z"/>
	</g>
	<g class="st1">
		<path class="st2" d="M360.9,436.7l48,38.1l-13,4.2h-35L360.9,436.7 M360.3,435.5l0,44H396l14.1-4.6L360.3,435.5L360.3,435.5z"/>
	</g>
	<g class="st1">
		<path class="st2" d="M607.5,411.8V479h-44.9l-38.4-40L607.5,411.8 M608.1,411l-84.9,27.6l39.2,40.8h45.7V411L608.1,411z"/>
	</g>
	<g class="st1">
		<path class="st2" d="M334.4,415.6l5,3.9V479l-105-0.2V444L334.4,415.6 M334.5,415l-100.7,28.6c0,11.9,0,23.8,0,35.7l106.1,0.2
			v-60.2L334.5,415L334.5,415z"/>
	</g>
	<g class="st1">
		<path class="st2" d="M590.5,342.8l17.1,20.3V410l-84.6,27.6l-21-21.9V368L590.5,342.8 M590.6,342.2l-89.3,25.4v48.3l21.4,22.3
			l85.3-27.8v-47.6L590.6,342.2L590.6,342.2z"/>
	</g>
	<g class="st1">
		<path class="st2" d="M522.5,439.5l37.8,39.4h-58.4v-32.7L522.5,439.5 M522.6,438.9l-21.3,6.9v33.7h60.3L522.6,438.9L522.6,438.9z"
			/>
	</g>
	<g class="st1">
		<path class="st2" d="M607.5,338v22.4l-15.3-18.1L607.5,338 M608.1,337.2l-16.8,4.8l16.8,20V337.2L608.1,337.2z"/>
	</g>
	<g class="st1">
		<path class="st2" d="M607.5,262.9v73.3l-16.5,4.7l-47.8-56.6L607.5,262.9 M608.1,262.1L542.3,284l48.6,57.6l17.2-4.9
			C608.1,336.6,608.1,278.1,608.1,262.1L608.1,262.1z"/>
	</g>
	<g class="st1">
		<path class="st2" d="M607.5,246.4v14.7l-65.5,21.7l-11.6-13.7c21.4-3.8,40.2-8.6,56.1-14.4C593.7,252.2,600.7,249.4,607.5,246.4
			 M608.1,245.6c-4.9,2.1-12.4,5.3-21.7,8.7c-6.8,2.5-25.4,9-57,14.5l12.4,14.8l66.2-22C608.1,256.2,608.1,250.9,608.1,245.6
			L608.1,245.6z"/>
	</g>
	<g class="st1">
		<path class="st2" d="M234.3,336.3l43.3,34.3L234.3,385V336.3 M233.8,335.1c0,16.9,0,33.8,0,50.7l45-14.9L233.8,335.1L233.8,335.1z
			"/>
	</g>
</g>
<g id="Oberer_Teil_00000147909386849652401830000015104047359017726117_" class="st0">
	<g class="st1">
		<polygon class="st3" points="347,188.8 396,172.9 460.8,246.8 417.7,257.5 		"/>
		<path class="st4" d="M395.9,173.2l64.3,73.4l-42.5,10.6l-70.3-68.3L395.9,173.2 M396.1,172.6l-49.7,16.1l71.2,69.2l43.7-10.9
			L396.1,172.6L396.1,172.6z"/>
	</g>
	<g class="st1">
		<path class="st3" d="M312.6,75.9c2.4-2.3,6.2-5.7,11.2-9.5c6.4-5,13.9-9.9,21.8-14.4l16.8,20l-42.7,12.1L312.6,75.9z"/>
		<path class="st4" d="M345.5,52.4l16.4,19.4l-42.1,11.9L313,76c2.4-2.3,6.2-5.6,11-9.3C330.2,61.7,337.7,56.8,345.5,52.4
			 M345.6,51.7c-11.5,6.4-19.2,12.3-22,14.5c-5.6,4.3-9.6,8-11.4,9.7l7.4,8.5l43.3-12.2L345.6,51.7L345.6,51.7z"/>
	</g>
	<g class="st1">
		<polygon class="st3" points="320.5,85 363.2,73 384.8,98.6 342.6,110.2 		"/>
		<path class="st4" d="M363.1,73.3l21.2,25.2l-41.7,11.4L321,85.2L363.1,73.3 M363.3,72.6L320,84.9l22.5,25.6l42.9-11.7L363.3,72.6
			L363.3,72.6z"/>
	</g>
	<g class="st1">
		<polygon class="st3" points="386.9,99.3 454.8,80.7 497.2,139 436.9,158.5 		"/>
		<path class="st4" d="M454.7,81l42.1,57.8l-59.8,19.3l-49.6-58.8L454.7,81 M454.9,80.4l-68.6,18.7l50.4,59.7l60.9-19.7L454.9,80.4
			L454.9,80.4z"/>
	</g>
	<g class="st1">
		<polygon class="st3" points="343.4,111.1 385.6,99.6 435.7,158.9 396.4,171.6 		"/>
		<path class="st4" d="M385.5,99.9l49.6,58.9l-38.7,12.5l-52.6-60L385.5,99.9 M385.7,99.3L342.9,111l53.4,61l39.9-12.9L385.7,99.3
			L385.7,99.3z"/>
	</g>
	<g class="st1">
		<path class="st3" d="M418.7,258.6l43-10.7l14.8,16.9c-17.5,1.4-33.4,2.3-48.8,2.5L418.7,258.6z"/>
		<path class="st4" d="M461.6,248.2l14.3,16.4c-17.2,1.4-32.9,2.2-48.1,2.5l-8.6-8.3L461.6,248.2 M461.8,247.5l-43.7,10.9l9.5,9.2
			c16.5-0.3,33.1-1.2,49.5-2.6L461.8,247.5L461.8,247.5z"/>
	</g>
	<g class="st1">
		<path class="st3" d="M435.7,52.5l61.5-17.4c10.7,6.7,21,15,30.6,24.5l-72.5,19.8L435.7,52.5z"/>
		<path class="st4" d="M497.1,35.4c10.5,6.6,20.6,14.7,30.1,24l-71.8,19.6l-19.2-26.4L497.1,35.4 M497.2,34.8l-62,17.5l19.9,27.4
			l73.2-20C518.9,50.5,508.5,41.9,497.2,34.8L497.2,34.8z"/>
	</g>
	<g class="st1">
		<polygon class="st3" points="364.4,72.6 434.5,52.8 454.1,79.7 386,98.3 		"/>
		<path class="st4" d="M434.4,53.1l19.2,26.4L386.1,98l-21.3-25.2L434.4,53.1 M434.6,52.5l-70.7,20l22.1,26.1l68.6-18.7L434.6,52.5
			L434.6,52.5z"/>
	</g>
	<g class="st1">
		<polygon class="st3" points="437.6,159.5 497.9,140 557.9,222.5 502.5,236.3 		"/>
		<path class="st4" d="M497.8,140.3l59.7,82L502.6,236l-64.5-76.4L497.8,140.3 M498,139.6l-60.9,19.7l65.2,77.3l56-14L498,139.6
			L498,139.6z"/>
	</g>
	<g class="st1">
		<path class="st3" d="M416.2,267.4c-10.2,0-20.2-0.3-29.9-0.8l31.2-7.8l8.7,8.5C422.8,267.4,419.4,267.4,416.2,267.4
			C416.2,267.4,416.2,267.4,416.2,267.4z"/>
		<path class="st4" d="M417.4,259.2l8.1,7.9c-3.1,0-6.2,0.1-9.3,0.1c-9.5,0-18.9-0.2-28-0.7L417.4,259.2 M417.5,258.6l-33.1,8.3
			c10.6,0.6,21.2,0.9,31.8,0.9c3.6,0,7.1,0,10.7-0.1L417.5,258.6L417.5,258.6z"/>
	</g>
	<g class="st1">
		<path class="st3" d="M382.1,266.4c-8.7-0.5-17.4-1.3-25.8-2.3l-57.2-59.8l46.6-15.1l70.6,68.7L382.1,266.4z"/>
		<path class="st4" d="M345.7,189.5l70.2,68.2l-33.7,8.4c-8.7-0.5-17.3-1.3-25.6-2.3l-56.9-59.4L345.7,189.5 M345.8,188.8
			l-47.2,15.3l57.6,60.2c8.6,1,17.3,1.8,25.9,2.4l34.8-8.7L345.8,188.8L345.8,188.8z"/>
	</g>
	<g class="st1">
		<polygon class="st3" points="397.2,172.5 436.5,159.8 501.3,236.6 462,246.5 		"/>
		<path class="st4" d="M436.4,160.2l64.4,76.3l-38.7,9.7l-64.4-73.5L436.4,160.2 M436.6,159.5l-39.9,12.9l65.2,74.4l39.9-10
			L436.6,159.5L436.6,159.5z"/>
	</g>
	<g class="st1">
		<polygon class="st3" points="283.8,127.4 342.2,111.5 395.2,172 346,187.9 		"/>
		<path class="st4" d="M342.1,111.8l52.6,60.1l-48.6,15.7l-61.7-60L342.1,111.8 M342.3,111.1l-59,16.1l62.7,60.9l49.8-16.1
			L342.3,111.1L342.3,111.1z"/>
	</g>
	<g class="st1">
		<path class="st3" d="M346.6,51.5c2.4-1.3,4.6-2.5,6.9-3.6c5.3-2.7,10.9-5.2,16.5-7.4l0.2-0.1V24c0.2-0.1,0.5-0.3,0.8-0.5
			c8.2-4.8,17.8-6.3,27-7.3c2.6-0.3,4.8-0.5,6.8-0.7c0.8-0.1,1.6-0.1,2.4-0.2l26.6,36.5l-70.2,19.8L346.6,51.5z"/>
		<path class="st4" d="M407.1,15.6l26.2,36.1l-69.6,19.7L347,51.6c2.2-1.2,4.4-2.4,6.6-3.5c5.3-2.7,10.9-5.2,16.5-7.4l0.4-0.1v-0.4
			V24.2c0.2-0.1,0.4-0.3,0.7-0.4c8.1-4.8,17.7-6.2,26.9-7.3c2.6-0.3,4.8-0.5,6.8-0.7C405.6,15.7,406.3,15.7,407.1,15.6 M407.4,15
			c-0.9,0.1-1.7,0.1-2.6,0.2c-2.3,0.2-4.6,0.4-6.8,0.7c-9.3,1.1-18.9,2.5-27.1,7.3c-0.4,0.2-0.8,0.4-1,0.6c0,5.5,0,10.9,0,16.4
			c-6.9,2.7-12.5,5.3-16.6,7.4c-2.5,1.3-4.9,2.6-7.2,3.8L363.5,72l70.8-20L407.4,15L407.4,15z"/>
	</g>
	<g class="st1">
		<path class="st3" d="M277.1,120.9c1.2-2,2.3-3.8,3.3-5.4c6.9-11.2,13.4-19.1,17.7-24.1l21.1-6l22,25.1l-58.4,16L277.1,120.9z"/>
		<path class="st4" d="M319.2,85.7l21.6,24.7L283,126.1l-5.5-5.3c1.1-1.9,2.2-3.7,3.2-5.2c6.9-11.1,13.4-19,17.6-24L319.2,85.7
			 M319.4,85l-21.4,6c-4.8,5.7-11.2,13.6-17.8,24.2c-1,1.7-2.2,3.5-3.4,5.6l6,5.9l59-16.1L319.4,85L319.4,85z"/>
	</g>
	<g class="st1">
		<path class="st3" d="M299.5,89.8c2.5-2.7,10-10.9,12.2-13l6.7,7.7L299.5,89.8z"/>
		<path class="st4" d="M311.7,77.1l6.2,7.1l-17.6,5C303.3,86.1,309.5,79.4,311.7,77.1 M311.8,76.3c-2.1,2-11.8,12.6-13.1,14
			l20.3-5.7L311.8,76.3L311.8,76.3z"/>
	</g>
	<g class="st1">
		<path class="st3" d="M272.5,129.3c1.3-2.5,2.6-4.9,4.1-7.4l5.1,4.9L272.5,129.3z"/>
		<path class="st4" d="M276.6,122.3l4.5,4.3l-8.1,2.2C274.1,126.7,275.3,124.6,276.6,122.3 M276.5,121.4c-1.5,2.5-3,5.3-4.6,8.3
			l10.3-2.8L276.5,121.4L276.5,121.4z"/>
	</g>
	<g class="st1">
		<path class="st3" d="M227.6,226.2c-4.1-3.3-7.8-6.9-11.1-10.7c-4.3-5-6.6-9.2-7.4-13.9c-0.4-2.5-0.5-5-0.3-7.2
			c0.1-1.1,0.5-2.1,1-3.2c0.8-1.7,1.8-3.5,3.1-5.1c4.5-5.7,9.2-9.8,9.4-9.9l0,0c3.2-2.8,7.2-6,14.4-10.1c2.4-1.3,4.9-2.5,7.3-3.6
			c1.1-0.5,2.2-1,3.3-1.5l0,33l10.9,0l0-0.3c0-0.5-0.1-1.3-0.2-2.2c-0.2-3.6-0.2-7.5,0.1-11.8c0.3-4.1,0.7-10.3,2.5-18.3
			c1.2-5.3,2.9-11.2,5.1-17c1.7-4.6,3.7-9.1,5.9-13.6l10.8-3l62.2,60.5l-46.6,15.1L272,175.9l-0.8,0.8l1.2,1.3l-0.3,0.3l24.5,25.6
			L227.6,226.2z"/>
		<path class="st4" d="M282.5,128l61.8,60.1l-46,14.9l-25.9-27.1l-0.4-0.4l-0.4,0.4l-0.4,0.4l-0.4,0.4l0.4,0.4l0.8,0.8l-0.3,0.3
			l0.4,0.4l24,25l-68.5,22.1c-4-3.2-7.7-6.8-10.9-10.5c-4.2-4.9-6.5-9.2-7.3-13.7c-0.4-2.5-0.5-4.9-0.3-7.2c0.1-1,0.5-2.1,1-3.1
			c0.7-1.7,1.8-3.4,3.1-5.1c4.6-5.8,9.3-9.9,9.3-9.9c3.2-2.7,7.2-6,14.4-10.1c2.4-1.3,4.9-2.5,7.3-3.6c1-0.4,1.9-0.9,2.9-1.4l0,32.3
			l0,0.6l0.6,0l10.3,0l0.6,0l-0.1-0.6c0-0.5-0.1-1.3-0.2-2.2c-0.2-3.6-0.2-7.5,0.1-11.8c0.3-4.1,0.7-10.3,2.5-18.2
			c1.1-5.3,2.9-11.1,5.1-16.9c1.7-4.6,3.7-9,5.9-13.4L282.5,128 M282.7,127.4l-11.1,3c-2,4-4.1,8.6-6,13.7c-3.2,8.5-4.6,14.8-5.1,17
			c-1.7,8-2.2,14.1-2.5,18.3c-0.4,5.9-0.3,9.9-0.1,11.9c0.1,0.9,0.1,1.7,0.2,2.2c-3.4,0-6.9,0-10.3,0l0-33.2
			c-3.7,1.8-7.5,3.4-11,5.4c-7.1,4-11.2,7.3-14.5,10.1c0,0-4.8,4.1-9.4,10c-1.3,1.6-2.3,3.3-3.2,5.2c-0.4,1-0.9,2.1-1,3.3
			c-0.2,2.4-0.1,4.9,0.3,7.3c1,5.5,3.9,9.9,7.4,14c3.5,4,7.2,7.6,11.2,10.8l69.7-22.5l-24.7-25.7l0.3-0.3l-1.2-1.3l0.4-0.4
			l26.1,27.3l47.2-15.3L282.7,127.4L282.7,127.4z"/>
	</g>
	<g class="st1">
		<path class="st3" d="M560,223.4l72.4-18c-0.3,1-0.6,2-0.9,2.9l0,0.1c-0.3,0.8-0.6,1.6-1,2.3c-1.4,2.6-3.2,5-5.3,7.2
			c-10.7,11.1-27.1,20.6-48.6,28.2L560,223.4z"/>
		<path class="st4" d="M632,205.8c-0.2,0.8-0.5,1.6-0.8,2.4l0,0.1c-0.3,0.8-0.6,1.6-1,2.3c-1.4,2.5-3.2,4.9-5.3,7.1
			c-10.7,11.1-26.9,20.5-48.3,28.1l-16.2-22.2L632,205.8 M632.8,205l-73.3,18.2l16.9,23.2c18.1-6.4,36.3-15.3,48.9-28.4
			c2.1-2.2,3.9-4.6,5.4-7.2c0.4-0.8,0.7-1.6,1.1-2.5C632.1,207.3,632.5,206.1,632.8,205L632.8,205z"/>
	</g>
	<g class="st1">
		<path class="st3" d="M408.6,15.2c3-0.2,6.2-0.2,9.8-0.2c3.5,0,7.1,0.1,10.6,0.1l1.7,0c15.7,0.3,29,2.6,40.8,7
			c8.1,3.1,16.3,7.1,24.3,12.1L435,51.5L408.6,15.2z"/>
		<path class="st4" d="M418.4,15.3c3.5,0,7.1,0.1,10.6,0.1l1.7,0c15.7,0.3,29,2.6,40.7,7c7.9,3,15.9,6.9,23.7,11.7l-60.1,17
			l-26-35.7C411.9,15.4,415,15.3,418.4,15.3 M418.4,14.7c-3.5,0-6.9,0.1-10.4,0.3l26.8,36.8l61.7-17.4c-7.9-5-16.3-9.2-24.9-12.4
			c-13.1-4.9-27-6.8-40.9-7.1C426.6,14.8,422.5,14.7,418.4,14.7L418.4,14.7z"/>
	</g>
	<g class="st1">
		<path class="st3" d="M503.5,237.5l55.3-13.8l16.6,22.8c-6.7,2.3-13.9,4.5-22,6.6c-9.7,2.5-20,4.7-31.3,6.5L503.5,237.5z"/>
		<path class="st4" d="M558.7,224l16.3,22.4c-6.6,2.3-13.7,4.4-21.6,6.5c-9.7,2.5-19.9,4.6-31.2,6.4L504,237.6L558.7,224
			 M558.9,223.4l-56,13.9l19,22.6c10.6-1.7,21.1-3.8,31.5-6.5c7.2-1.9,14.7-4.1,22.3-6.7L558.9,223.4L558.9,223.4z"/>
	</g>
	<g class="st1">
		<path class="st3" d="M463,247.6l39.3-9.8l18.6,22c-11.2,1.7-23,3.2-37.3,4.4c-1.9,0.2-3.7,0.3-5.6,0.5L463,247.6z"/>
		<path class="st4" d="M502.1,238.1l18.1,21.5c-11,1.7-22.7,3.1-36.7,4.3c-1.8,0.2-3.6,0.3-5.4,0.5l-14.6-16.7L502.1,238.1
			 M502.3,237.5l-39.9,9.9l15.4,17.6c1.9-0.2,3.8-0.3,5.7-0.5c12.6-1.1,25.2-2.5,37.8-4.5L502.3,237.5L502.3,237.5z"/>
	</g>
	<g class="st1">
		<path class="st3" d="M354.2,263.8c-11-1.4-21.7-3.1-31.9-5.3c-4.4-0.9-8.9-1.8-13.2-2.7c-28.5-5.6-58-11.4-80.4-28.9l68.9-22.3
			L354.2,263.8z"/>
		<path class="st4" d="M297.5,205.1l56,58.4c-10.7-1.4-21.1-3.1-31.1-5.2c-4.4-0.9-8.9-1.8-13.3-2.7c-28.3-5.6-57.5-11.3-79.9-28.5
			L297.5,205.1 M297.6,204.4L228,226.9c26.1,20.6,62.1,25.2,94.2,31.9c10.8,2.3,21.7,4,32.7,5.4L297.6,204.4L297.6,204.4z"/>
	</g>
	<g class="st1">
		<path class="st3" d="M499,139.6l68.9-22.3c2,4.5,3.7,8.8,5.3,13.2c7.1,20.2,10.5,41.4,10.1,62.9l0,0.3h10.9v-33.1
			c1,0.4,2,0.8,3,1.2c8.7,3.7,16.8,9.1,24,16.1c1.5,1.5,2.8,2.8,3.9,4c3.7,4,7.5,8.9,8.1,14.9c0.2,1.8,0.1,3.7-0.3,5.8
			c-0.1,0.4-0.1,0.7-0.2,1.1l-73.6,18.4L499,139.6z"/>
		<path class="st4" d="M567.8,117.7c2,4.4,3.7,8.6,5.2,13c7.1,20.2,10.4,41.3,10.1,62.8l0,0.6h0.6h1.9h8.4h0.6v-0.6v-32.4
			c0.9,0.3,1.8,0.7,2.6,1.1c8.7,3.7,16.8,9.1,23.9,16c1.5,1.5,2.8,2.8,3.9,4c3.6,4,7.4,8.8,8,14.8c0.2,1.8,0.1,3.7-0.3,5.7
			c-0.1,0.3-0.1,0.6-0.2,0.9l-73.3,18.3l-59.7-82.1L567.8,117.7 M568.1,117l-69.6,22.5l60.4,83l74-18.5c0.1-0.4,0.2-0.9,0.3-1.3
			c0.3-1.9,0.4-3.9,0.3-5.8c-0.5-5.9-4.2-10.9-8.1-15.1c-0.8-0.9-2.1-2.2-3.9-4c-6.2-6-14.1-11.9-24.1-16.1
			c-1.2-0.5-2.3-0.9-3.4-1.4c0,11.1,0,22.1,0,33.2h-8.4h-1.9c0.3-14.9-1.2-37.5-10.1-63C572.5,127.6,570.8,122.9,568.1,117
			L568.1,117z"/>
	</g>
	<g class="st1">
		<path class="st3" d="M456,80.4l72.7-19.9c1.5,1.6,8.8,9.3,11.2,12.2c11.2,13.3,20.5,27.9,27.6,43.6l-69.2,22.4L456,80.4z"/>
		<path class="st4" d="M528.6,60.8c1.6,1.7,8.7,9.2,11.1,12c11.1,13.2,20.3,27.7,27.4,43.2l-68.7,22.2l-42-57.8L528.6,60.8
			 M528.8,60.2l-73.3,20l42.7,58.8l69.7-22.5c-5.2-11.5-14-27.6-27.8-43.9C537.6,69.5,529.9,61.3,528.8,60.2L528.8,60.2z"/>
	</g>
</g>
<g>
	<polygon points="460.3,266.6 395.8,193.1 347.3,208.8 417.7,277.3 	"/>
	<path d="M361.7,91.6l-16.4-19.5c-13.2,7.4-24.5,15.6-32.7,23.6l6.9,7.8L361.7,91.6z"/>
	<polygon points="384.2,118.2 362.9,93 320.8,104.9 342.5,129.6 	"/>
	<polygon points="496.8,158.7 454.7,100.7 387.2,119.2 436.9,178.1 	"/>
	<polygon points="435.2,178.6 385.4,119.7 343.7,131 396.4,191.2 	"/>
	<path d="M476,284.6l-14.4-16.4l-42.4,10.6l8.6,8.3C443,286.8,458.8,286,476,284.6z"/>
	<path d="M527.3,79.1c-9.5-9.3-19.7-17.4-30.2-24.1l-61.1,17.2l19.3,26.5L527.3,79.1z"/>
	<polygon points="453.6,99.3 434.4,72.8 364.7,92.5 386,117.7 	"/>
	<polygon points="557.6,242.3 497.9,160.1 438.1,179.5 502.7,256 	"/>
	<path d="M425.4,287.1l-8.1-7.9l-29.2,7.3c9.1,0.5,18.5,0.7,28,0.7C419.2,287.2,422.3,287.2,425.4,287.1z"/>
	<path d="M345.5,209.4l-46.1,14.9l57,59.6c8.3,1,17,1.8,25.7,2.3l33.8-8.4L345.5,209.4z"/>
	<polygon points="500.8,256.5 436.3,180 397.6,192.5 462.1,266.2 	"/>
	<polygon points="394.6,191.7 341.9,131.5 284.1,147.3 345.9,207.5 	"/>
	<path d="M363.5,91l69.8-19.7l-26.2-36.2c-17.5,1-29.6,3.8-36.8,8.6v16.1v0.4l-0.4,0.1c-6.8,2.7-16.9,7.1-23.2,10.8L363.5,91z"/>
	<path d="M282.7,145.9l58-15.8L319,105.4l-20.9,5.9c-5.1,5.1-18.8,24.7-20.9,29.2L282.7,145.9z"/>
	<path d="M300.1,109l17.6-5l-6.3-7.1C309.2,99.1,303,105.8,300.1,109z"/>
	<path d="M280.8,146.5l-4.5-4.3c-1.3,2.2-2.5,4.4-3.6,6.6L280.8,146.5z"/>
	<path d="M272.1,195.8l25.9,27.1l46-14.9l-61.9-60.2l-10.6,2.9c-5.8,11.2-15.1,34.1-13.4,62.7l0,0.6l-0.6,0l-10.2,0l-0.1,0l-0.6,0
		l0-0.6l0-32.4c-13,5.4-34.2,18.9-38.1,33.3c-3.5,12.8,15.4,28.8,18.6,31.4l68.7-22.2l-25-26.6l-0.4-0.4l0.4-0.4l0.4-0.4l0.4-0.4
		L272.1,195.8z"/>
	<path d="M560.7,243.5l16.2,22.3c37-11.2,53.5-30.1,55.5-40.1L560.7,243.5z"/>
	<path d="M409,35l26,35.8l60.2-17c-8.5-5.6-31.3-19.7-69.3-19.7C420.5,34.2,414.8,34.5,409,35z"/>
	<path d="M575.2,266.4L558.9,244l-54.8,13.7l18.3,21.7C550.9,274.7,567.1,269.2,575.2,266.4z"/>
	<path d="M520.4,279.6l-18.2-21.5l-38.7,9.6l14.6,16.7C481.2,284.2,507.2,281.9,520.4,279.6z"/>
	<path d="M297.2,225l-68.5,22.1c23.7,22,99.2,33.2,124.6,36.4L297.2,225z"/>
	<path d="M625.9,202.7l-0.6-0.6c0,0-0.1-0.1-0.2-0.2c-3.6-4.1-13.7-14.3-30.3-20.8v32.4v0.6h-0.6h-8.4h-1.9h-0.6l0-0.6
		c0-1.7,0-3.3,0-5.1c0.1-13.6,0.3-32.1-15.3-70.8l-68.4,22.1l59.8,82.3l73.5-18.4C635,212.6,629.7,206.9,625.9,202.7z"/>
	<path d="M567.4,135.9c-7.9-20.9-33.1-50.7-38.6-55.4l-72.3,19.8l42.1,57.9L567.4,135.9z"/>
	<path d="M234.6,266.5l-0.6-0.3v56.9l23.2-5.8l91.3-22.8C309.6,289.6,271.4,280.2,234.6,266.5z"/>
	<polygon points="280.9,391.5 334.6,434.1 339.2,432.8 339.2,372.2 	"/>
	<path d="M360.2,329.6h0.6v0.6l0,33.1l52.3-17.4l-47.4-49.4c-4.1-0.4-8.2-0.8-12.3-1.3L257.8,319l-23.8,6v29.4l45.3,35.9l59.9-19.9
		v-40.3v-0.6h0.6H360.2z"/>
	<polygon points="410.8,494.6 480.3,472 480.3,415.8 464.2,399 360.8,428.4 360.8,454.9 	"/>
	<polygon points="336.2,435.4 339.2,437.8 339.2,434.6 	"/>
	<polygon points="521.3,458.6 502.1,438.5 502.1,464.9 	"/>
	<polygon points="410.5,496.5 401.4,499.5 414.2,499.5 	"/>
	<polygon points="502,386.5 589.6,361.6 541.7,305 416.3,346.6 442.2,373.6 442.6,374 442.6,374 464.7,397.1 480.3,392.7 
		480.3,330.1 480.3,329.6 480.8,329.6 501.5,329.6 502,329.6 502,330.1 	"/>
	<path d="M414,298.5c-16,0-31.3-0.6-45.4-1.8l46.4,48.5l125.5-41.7l-11.8-14C488.2,295.5,449.6,298.5,414,298.5z"/>
	<polygon points="462.9,397.7 414.4,347.2 360.8,365 360.8,426.7 	"/>
	<polygon points="466,398.5 480.3,413.3 480.3,394.5 	"/>
	<polygon points="332.6,434.7 279,392.2 234,407.1 234,462.7 	"/>
	<polygon points="412.4,495.9 416.9,499.5 480.3,499.5 480.3,473.8 	"/>
	<polygon points="360.8,457.1 360.8,499.5 395.8,499.5 408.9,495.2 	"/>
	<polygon points="524.4,459.4 562.9,499.5 607.9,499.5 607.9,432.2 	"/>
	<polygon points="339.2,499.5 339.2,439.9 334.2,436 234,464.5 234,499.2 	"/>
	<polygon points="607.9,430.4 607.9,383.4 590.8,363.1 502,388.3 502,436 523.1,458 	"/>
	<polygon points="560.6,499.5 522.6,460 502,466.7 502,499.5 	"/>
	<polygon points="592.6,362.6 607.9,380.7 607.9,358.2 	"/>
	<polygon points="543.5,304.4 591.4,361.1 607.9,356.4 607.9,283 	"/>
	<path d="M530.7,289.2l11.6,13.7l65.6-21.8v-14.7C586.7,275.9,558.1,284.4,530.7,289.2z"/>
	<polygon points="277.4,390.9 234,356.5 234,405.3 	"/>
</g>
<g>
	<path class="st5" d="M698.6,298.8V158.8h35.9c30.8,0,46.6,12.9,46.6,41.7c0,28.1-16.2,42.7-46.6,42.7h-12.7v55.6H698.6z
		 M735.5,222.7c11.3,0,21.8-5.1,21.8-22.2c0-15-7.8-20.7-21.5-20.7h-14v42.9H735.5z"/>
	<rect x="793.6" y="158.8" class="st5" width="20.7" height="140.1"/>
	<path class="st5" d="M878.3,298.8l-1.2-10.7c-8,8.2-17,12.5-27.5,12.5c-14.2,0-22.8-9.8-22.8-26.7c0-11.5,4.1-20.3,12.9-26.7
		c7.8-6,20.7-10.3,36.5-15c1.2-13.3-1.8-19.7-12.1-19.7c-8.6,0-13.5,5.1-16.4,14l-16.8-4.1c4.5-16.4,14.4-26.9,34.3-26.9
		c22,0,31.2,10.5,31.2,32v52.3l1.6,19.1H878.3z M875.6,246.7c-11.1,3.1-17.4,5.7-21.9,9.4c-4.1,3.3-5.7,8.6-5.7,14.6
		c0,7.6,3.3,12.5,10,12.5c6.4,0,13.1-3.7,17.6-9.7V246.7z"/>
	<path class="st5" d="M962,298.8v-68.1c0-11.1-3.3-15.6-10.5-15.6c-5.5,0-10.7,2.9-17,10.1v73.5h-20.7V197.4h20.1v12.1
		c8.4-9.4,16.2-14,26.5-14c8.6,0,14.8,3.3,17.9,9.2c3.3,5.3,4.1,12.7,4.1,23.8v70.4H962z"/>
	<path class="st5" d="M1032.2,300.6c-24.4,0-36.3-16.2-36.3-53.1c0-32.8,12.7-52.1,36.7-52.1c26.3,0,35.5,20.9,35.5,46.8
		c0,2.9,0,6.2-0.2,9.9h-52.1c0.8,21.3,5.3,31.2,17.4,31.2c9.4,0,14.4-6.4,17.4-17l17.4,3.5C1062.5,291.4,1050.5,300.6,1032.2,300.6
		 M1016,237.2h32.2c0-15-4.7-25.2-15.6-25.2C1022.5,212,1017.4,221,1016,237.2"/>
	<path class="st5" d="M1127.2,298.2c-5.1,1-10.1,1.6-16,1.6c-16.8,0-23-6.2-23-25.6v-59.5h-13.5v-17.4h13.5v-33h20.5v33h18.5v17.4
		h-18.5v56c0,7.2,2.7,10.1,8.8,10.1c3.1,0,6.4-0.4,9.8-1.4V298.2z"/>
	<path class="st5" d="M1187.4,298.8l-1.2-10.7c-8,8.2-17,12.5-27.5,12.5c-14.2,0-22.8-9.8-22.8-26.7c0-11.5,4.1-20.3,12.9-26.7
		c7.8-6,20.7-10.3,36.5-15c1.2-13.3-1.8-19.7-12.1-19.7c-8.6,0-13.5,5.1-16.4,14l-16.8-4.1c4.5-16.4,14.4-26.9,34.3-26.9
		c22,0,31.2,10.5,31.2,32v52.3l1.6,19.1H1187.4z M1184.7,246.7c-11.1,3.1-17.4,5.7-21.9,9.4c-4.1,3.3-5.7,8.6-5.7,14.6
		c0,7.6,3.3,12.5,10,12.5c6.4,0,13.1-3.7,17.6-9.7V246.7z"/>
	<path class="st5" d="M1222.9,298.8V197.4h20.1v16.8c6.6-12.1,13.3-18.7,24-18.7c1,0,1.9,0.2,3.3,0.4v21.3c-1.6-0.2-3.1-0.4-4.1-0.4
		c-10,0-17.2,6-22.6,17.4v64.8H1222.9z"/>
	<path class="st5" d="M1280.2,157.8h21.5v23h-21.5V157.8z M1280.6,197.4h20.7v101.4h-20.7V197.4z"/>
	<path class="st5" d="M1367.1,298.8v-12.1c-8.6,9.4-16.4,13.8-26.7,13.8c-8.6,0-14.4-3.1-17.7-9c-3.3-5.3-4.3-12.7-4.3-23.8v-70.4
		h21.1v68.1c0,11.1,2.7,15.6,10.3,15.6c5.3,0,10.5-2.9,16.6-10.1v-73.5h20.9v101.4H1367.1z"/>
	<path class="st5" d="M1496.6,298.8V230c0-11.3-4.1-14.8-9.6-14.8c-5.3,0-10.5,3.3-15.6,9.6v74.1h-20.7v-68.1
		c0-10.7-2.3-15.6-9.2-15.6c-5.5,0-11.1,4.1-16,10.3v73.3h-20.7V197.4h20.1v11.9c7.6-8.8,16-13.8,25.6-13.8c10.1,0,16,5.1,18.7,13.8
		c8.2-9.2,16-13.8,26.1-13.8c16.2,0,21.7,12.3,21.7,31.2v72.2H1496.6z"/>
	<polygon class="st5" points="698.6,499.3 698.6,359.3 771.4,359.3 771.4,380.3 721.8,380.3 721.8,416.8 758.7,416.8 758.7,437.1 
		721.8,437.1 721.8,499.3 	"/>
	<path class="st5" d="M776.1,499.3V397.9h20.1v16.8c6.6-12.1,13.3-18.7,24-18.7c1,0,1.9,0.2,3.3,0.4v21.3c-1.6-0.2-3.1-0.4-4.1-0.4
		c-10,0-17.2,6-22.6,17.4v64.8H776.1z"/>
	<path class="st5" d="M833.5,358.3h21.5v23h-21.5V358.3z M833.8,397.9h20.7v101.4h-20.7V397.9z"/>
	<path class="st5" d="M917.7,498.7c-5.1,1-10.1,1.6-16,1.6c-16.8,0-23-6.2-23-25.6v-59.5h-13.5v-17.4h13.5v-33h20.5v33h18.5v17.4
		h-18.5v56c0,7.2,2.7,10.1,8.8,10.1c3.1,0,6.4-0.4,9.8-1.4V498.7z"/>
	<polygon class="st5" points="925.7,499.3 925.7,483.7 965.5,415.2 929.4,415.2 929.4,397.9 990.1,397.9 990.1,413.7 950.3,482 
		991.3,482 991.3,499.3 	"/>
	<rect x="1003" y="359.3" class="st5" width="20.7" height="140.1"/>
	<path class="st5" d="M1087.7,499.3l-1.2-10.7c-8,8.2-17,12.5-27.5,12.5c-14.2,0-22.8-9.8-22.8-26.7c0-11.5,4.1-20.3,12.9-26.7
		c7.8-6,20.7-10.3,36.5-15c1.2-13.3-1.8-19.7-12.1-19.7c-8.6,0-13.5,5.1-16.4,14l-16.8-4.1c4.5-16.4,14.4-26.9,34.3-26.9
		c22,0,31.2,10.5,31.2,32v52.3l1.6,19.1H1087.7z M1085,447.2c-11.1,3.1-17.4,5.7-21.9,9.4c-4.1,3.3-5.7,8.6-5.7,14.6
		c0,7.6,3.3,12.5,10,12.5c6.4,0,13.1-3.7,17.6-9.7V447.2z"/>
	<path class="st5" d="M1123.2,499.3V397.9h20.1v16.8c6.6-12.1,13.3-18.7,24-18.7c1,0,1.9,0.2,3.3,0.4v21.3c-1.6-0.2-3.1-0.4-4.1-0.4
		c-9.9,0-17.2,6-22.6,17.4v64.8H1123.2z"/>
</g>
</svg>
